<?xml version="1.0" encoding="UTF-8"?>
<svg width="43px" height="43px" viewBox="0 0 43 43" version="1.1" xmlns="http://www.w3.org/2000/svg" xmlns:xlink="http://www.w3.org/1999/xlink">
    <title>facebook</title>
    <g id="Design-System" stroke="none" stroke-width="1" fill="none" fill-rule="evenodd">
        <g id="facebook">
            <path d="M43,21.5 C43,9.62586914 33.3741309,-4.77395901e-15 21.5,-4.77395901e-15 C9.62586914,-4.77395901e-15 0,9.62586914 0,21.5 C0,32.2312715 7.86223926,41.1258887 18.140625,42.7388086 L18.140625,27.7148438 L12.6816406,27.7148438 L12.6816406,21.5 L18.140625,21.5 L18.140625,16.7632812 C18.140625,11.3748437 21.3504238,8.3984375 26.2614941,8.3984375 C28.6137705,8.3984375 31.0742188,8.81835937 31.0742188,8.81835937 L31.0742188,14.109375 L28.3631191,14.109375 C25.69229,14.109375 24.859375,15.7666807 24.859375,17.4669443 L24.859375,21.5 L30.8222656,21.5 L29.869043,27.7148438 L24.859375,27.7148438 L24.859375,42.7388086 C35.1377607,41.1258887 43,32.2312715 43,21.5" id="Fill-1" fill="#1877F2"></path>
            <path d="M29.869043,27.7148438 L30.8222656,21.5 L24.859375,21.5 L24.859375,17.4669443 C24.859375,15.7666807 25.69229,14.109375 28.3631191,14.109375 L31.0742188,14.109375 L31.0742188,8.81835938 C31.0742188,8.81835938 28.6137705,8.3984375 26.2614941,8.3984375 C21.3504238,8.3984375 18.140625,11.3748438 18.140625,16.7632812 L18.140625,21.5 L12.6816406,21.5 L12.6816406,27.7148438 L18.140625,27.7148438 L18.140625,42.7388086 C19.2352354,42.9105566 20.3571406,43 21.5,43 C22.6428594,43 23.7647646,42.9105566 24.859375,42.7388086 L24.859375,27.7148438 L29.869043,27.7148438" id="Fill-4" fill="#FFFFFF"></path>
        </g>
    </g>
</svg>