<?xml version="1.0" encoding="UTF-8"?>
<svg width="43px" height="43px" viewBox="0 0 43 43" version="1.1" xmlns="http://www.w3.org/2000/svg" xmlns:xlink="http://www.w3.org/1999/xlink">
    <title>facebook group</title>
    <g id="Design-System" stroke="none" stroke-width="1" fill="none" fill-rule="evenodd">
        <g id="facebook-group">
            <circle id="Oval" fill="#268DFC" cx="21.5" cy="21.5" r="21.5"></circle>
            <path d="M21.4696139,10.75 C23.924812,10.75 25.912064,12.7843788 25.912064,15.2978008 C25.912064,16.9464564 25.0490983,18.396029 23.7668042,19.1923608 C24.8242411,19.5158705 25.7905195,20.0633486 26.6109447,20.7788029 C27.2065125,20.2313248 27.9114704,19.8082736 28.6832777,19.5345346 C27.7777715,18.887515 27.1882809,17.8112229 27.1882809,16.5980613 C27.1882809,14.6134532 28.7562044,13.0083471 30.6948386,13.0083471 C32.6334728,13.0083471 34.2013963,14.6134532 34.2013963,16.5980613 C34.2013963,17.8112229 33.6058285,18.887515 32.7063995,19.5345346 C35.119057,20.3868584 36.8449884,22.7323042 36.8571429,25.49458 L36.8571429,25.49458 L36.8571429,25.9051885 C36.8571429,25.9176312 36.8449884,25.9300739 36.832834,25.9300739 L36.832834,25.9300739 L29.3517723,25.9300739 C29.3943128,26.2722477 29.4186217,26.6268642 29.4186217,26.9814807 L29.4186217,26.9814807 L29.4186217,27.4045319 C29.4186217,29.2336064 27.9722426,30.7142857 26.185539,30.7142857 L26.185539,30.7142857 L16.7658432,30.7142857 C14.9791396,30.7142857 13.5327605,29.2336064 13.5327605,27.4045319 L13.5327605,27.4045319 L13.5327605,26.9814807 C13.5327605,26.6268642 13.5570694,26.2722477 13.5996099,25.9300739 L13.5996099,25.9300739 L6.16716604,25.9300739 C6.15501159,25.9300739 6.14285714,25.9176312 6.14285714,25.9051885 L6.14285714,25.9051885 L6.14285714,25.49458 C6.14285714,22.7385256 7.87486574,20.3930797 10.2875233,19.5407559 C9.38201707,18.8937364 8.79252643,17.8174442 8.79252643,16.6042826 C8.79252643,14.6196746 10.36045,13.0145684 12.2990842,13.0145684 C14.2377184,13.0145684 15.8056419,14.6196746 15.8056419,16.6042826 C15.8056419,17.8174442 15.2100741,18.8937364 14.310645,19.5407559 C15.0702979,19.8082736 15.7631014,20.2251035 16.3586692,20.7601389 C17.1730171,20.0571273 18.1271412,19.5158705 19.1724235,19.1923608 C17.8840522,18.396029 17.0271638,16.9464564 17.0271638,15.2978008 C17.0271638,12.7906001 19.0144157,10.75 21.4696139,10.75 Z" id="Combined-Shape" fill="#FFFFFF" fill-rule="nonzero"></path>
        </g>
    </g>
</svg>