<?xml version="1.0" encoding="UTF-8"?>
<svg width="622px" height="180px" viewBox="0 0 622 180" version="1.1" xmlns="http://www.w3.org/2000/svg" xmlns:xlink="http://www.w3.org/1999/xlink">
    <title>Mobio logo</title>
    <g id="Design-System" stroke="none" stroke-width="1" fill="none" fill-rule="evenodd">
        <g id="Mobio-logo">
            <path d="M40.1842591,168.94635 L33.689018,168.94635 L33.689018,150.447466 L40.1842591,150.447466 C46.1291369,150.447466 49.9440714,154.175529 49.9440714,159.697173 C49.9440714,165.218817 46.1291369,168.94635 40.1842591,168.94635 M40.3903143,147.387891 L30.2528225,147.387891 L30.2528225,172.006455 L40.3903143,172.006455 C48.1229461,172.006455 53.3807966,167.012397 53.3807966,159.697173 C53.3807966,152.381949 48.1229461,147.387891 40.3903143,147.387891" id="Fill-1" fill="#424243"></path>
            <path d="M59.8099836,145.383276 C58.5386919,145.383276 57.5762181,146.367997 57.5762181,147.599031 C57.5762181,148.829536 58.5386919,149.779297 59.8099836,149.779297 C61.1162358,149.779297 62.043749,148.794575 62.043749,147.528581 C62.043749,146.332507 61.081805,145.383276 59.8099836,145.383276" id="Fill-3" fill="#424243"></path>
            <polygon id="Fill-5" fill="#424243" points="58.1605356 172.006296 61.4595375 172.006296 61.4595375 153.366511 58.1605356 153.366511"></polygon>
            <path d="M75.6879401,168.278286 C72.0107289,168.278286 69.3992839,165.781787 69.3992839,162.194096 C69.3992839,158.571444 72.0107289,156.144866 75.6879401,156.144866 C79.3307205,156.144866 81.9426952,158.571444 81.9426952,162.194096 C81.9426952,165.781787 79.3307205,168.278286 75.6879401,168.278286 L75.6879401,168.278286 Z M82.045458,156.250277 C80.4992494,154.210384 78.024998,153.190702 75.3097308,153.190702 C70.0518803,153.190702 66.0653214,156.812824 66.0653214,162.194096 C66.0653214,167.574838 70.0518803,171.23245 75.3097308,171.23245 C77.9217055,171.23245 80.2926645,170.283219 81.8738336,168.348737 L81.8738336,169.825554 C81.8738336,174.046242 79.9144553,176.086136 75.6190785,176.086136 C72.9387718,176.086136 70.2923663,175.136375 68.6084345,173.659558 L67.0277951,176.261468 C69.0210746,178.090539 72.3889381,179.0403 75.7223709,179.0403 C81.9082644,179.0403 85.1728355,176.051175 85.1728355,169.47436 L85.1728355,153.366564 L82.045458,153.366564 L82.045458,156.250277 Z" id="Fill-7" fill="#424243"></path>
            <polygon id="Fill-8" fill="#424243" points="91.4636106 172.006296 94.7626125 172.006296 94.7626125 153.366511 91.4636106 153.366511"></polygon>
            <path d="M93.1135353,145.383276 C91.8422436,145.383276 90.8797699,146.367997 90.8797699,147.599031 C90.8797699,148.829536 91.8422436,149.779297 93.1135353,149.779297 C94.4197876,149.779297 95.3473008,148.794575 95.3473008,147.528581 C95.3473008,146.332507 94.3853567,145.383276 93.1135353,145.383276" id="Fill-9" fill="#424243"></path>
            <path d="M107.685716,169.368472 C105.864061,169.368472 104.833256,168.242849 104.833256,166.238445 L104.833256,156.144919 L110.057205,156.144919 L110.057205,153.366617 L104.833256,153.366617 L104.833256,149.28683 L101.534254,149.28683 L101.534254,153.366617 L98.4413069,153.366617 L98.4413069,156.144919 L101.534254,156.144919 L101.534254,166.379347 C101.534254,170.14237 103.630296,172.217224 107.308037,172.217224 C108.785384,172.217224 110.297691,171.795579 111.294066,170.915739 L110.262731,168.489161 C109.575703,169.052238 108.64819,169.368472 107.685716,169.368472" id="Fill-10" fill="#424243"></path>
            <path d="M126.416398,166.308949 C125.591648,168.454254 123.632799,169.614837 121.158018,169.614837 C118.649336,169.614837 117.137029,168.454254 117.137029,166.590222 C117.137029,165.007464 118.065071,163.706509 121.330172,163.706509 L126.416398,163.706509 L126.416398,166.308949 Z M121.914437,153.190278 C118.993114,153.190278 116.278377,154.034628 114.38786,155.582425 L115.762444,158.114415 C117.171989,156.883381 119.371324,156.110012 121.536227,156.110012 C124.800799,156.110012 126.416398,157.762691 126.416398,160.611444 L126.416398,161.279931 L121.192449,161.279931 C115.762444,161.279931 113.872457,163.74147 113.872457,166.731124 C113.872457,169.966561 116.484432,172.217277 120.608185,172.217277 C123.460645,172.217277 125.488356,171.232556 126.588023,169.544387 L126.588023,172.006455 L129.7154,172.006455 L129.7154,160.752345 C129.7154,155.652876 126.897371,153.190278 121.914437,153.190278 L121.914437,153.190278 Z" id="Fill-11" fill="#424243"></path>
            <polygon id="Fill-12" fill="#424243" points="135.834339 172.006296 139.133341 172.006296 139.133341 145.910385 135.834339 145.910385"></polygon>
            <polygon id="Fill-13" fill="#424243" points="177.900057 147.387785 168.002522 164.691125 157.967792 147.387785 155.150292 147.387785 155.150292 172.006349 158.449294 172.006349 158.449294 154.175423 167.14387 169.017224 168.724509 169.017224 177.419085 154.070012 177.453516 172.006349 180.752518 172.006349 180.718087 147.387785"></polygon>
            <path d="M198.626296,166.308949 C197.801546,168.454254 195.842697,169.614837 193.367916,169.614837 C190.859234,169.614837 189.347456,168.454254 189.347456,166.590222 C189.347456,165.007464 190.275499,163.706509 193.54007,163.706509 L198.626296,163.706509 L198.626296,166.308949 Z M194.124335,153.190278 C191.203542,153.190278 188.488275,154.034628 186.597758,155.582425 L187.972342,158.114415 C189.381887,156.883381 191.581222,156.110012 193.746125,156.110012 C197.010697,156.110012 198.626296,157.762691 198.626296,160.611444 L198.626296,161.279931 L193.402877,161.279931 C187.972342,161.279931 186.082885,163.74147 186.082885,166.731124 C186.082885,169.966561 188.69433,172.217277 192.818082,172.217277 C195.670543,172.217277 197.698253,171.232556 198.797921,169.544387 L198.797921,172.006455 L201.925298,172.006455 L201.925298,160.752345 C201.925298,155.652876 199.107268,153.190278 194.124335,153.190278 L194.124335,153.190278 Z" id="Fill-14" fill="#424243"></path>
            <path d="M211.206151,156.496749 L211.206151,153.366723 L208.044343,153.366723 L208.044343,172.006508 L211.343875,172.006508 L211.343875,162.721311 C211.343875,158.642054 213.543209,156.426298 217.082697,156.426298 C217.323713,156.426298 217.564199,156.426298 217.838586,156.461789 L217.838586,153.190331 C214.642877,153.190331 212.37468,154.315954 211.206151,156.496749" id="Fill-15" fill="#424243"></path>
            <polygon id="Fill-16" fill="#424243" points="239.112911 153.366617 235.126352 153.366617 225.194386 162.651284 225.194386 145.910491 221.895384 145.910491 221.895384 172.006402 225.194386 172.006402 225.194386 166.906933 228.97489 163.319242 235.813909 172.006402 239.8688 172.006402 231.449141 161.068526"></polygon>
            <path d="M243.926816,161.38513 C244.270594,158.219614 246.607652,156.039349 249.768931,156.039349 C252.964641,156.039349 255.267797,158.255104 255.611046,161.38513 L243.926816,161.38513 Z M249.768931,153.190596 C244.51108,153.190596 240.627814,157.164972 240.627814,162.686615 C240.627814,168.243219 244.545511,172.217595 250.422057,172.217595 C253.446142,172.217595 255.954825,171.162423 257.604325,169.19298 L255.7832,167.012185 C254.443047,168.524493 252.655823,169.263431 250.52535,169.263431 C246.91647,169.263431 244.339456,167.082636 243.926816,163.812238 L258.703993,163.812238 C258.738424,163.495475 258.772854,163.0733 258.772854,162.792027 C258.772854,157.05956 255.026782,153.190596 249.768931,153.190596 L249.768931,153.190596 Z" id="Fill-17" fill="#424243"></path>
            <path d="M269.978443,169.368472 C268.157318,169.368472 267.125982,168.242849 267.125982,166.238445 L267.125982,156.144919 L272.349402,156.144919 L272.349402,153.366617 L267.125982,153.366617 L267.125982,149.28683 L263.826451,149.28683 L263.826451,153.366617 L260.734034,153.366617 L260.734034,156.144919 L263.826451,156.144919 L263.826451,166.379347 C263.826451,170.14237 265.923023,172.217224 269.600234,172.217224 C271.078111,172.217224 272.590418,171.795579 273.586793,170.915739 L272.555987,168.489161 C271.86843,169.052238 270.940387,169.368472 269.978443,169.368472" id="Fill-18" fill="#424243"></path>
            <path d="M279.224336,145.383276 C277.952514,145.383276 276.99057,146.367997 276.99057,147.599031 C276.99057,148.829536 277.952514,149.779297 279.224336,149.779297 C280.530058,149.779297 281.458101,148.794575 281.458101,147.528581 C281.458101,146.332507 280.495627,145.383276 279.224336,145.383276" id="Fill-19" fill="#424243"></path>
            <polygon id="Fill-20" fill="#424243" points="277.574888 172.006296 280.87389 172.006296 280.87389 153.366511 277.574888 153.366511"></polygon>
            <path d="M296.888881,153.19049 C294.001989,153.19049 291.665461,154.281153 290.324778,156.180144 L290.324778,153.366882 L287.16297,153.366882 L287.16297,172.006137 L290.462501,172.006137 L290.462501,162.405236 C290.462501,158.36041 292.730698,156.215105 296.235755,156.215105 C299.363132,156.215105 301.150357,158.009215 301.150357,161.666298 L301.150357,172.006137 L304.449359,172.006137 L304.449359,161.279613 C304.449359,155.79346 301.321981,153.19049 296.888881,153.19049" id="Fill-21" fill="#424243"></path>
            <path d="M318.610648,168.278286 C314.933436,168.278286 312.321991,165.781787 312.321991,162.194096 C312.321991,158.571444 314.933436,156.144866 318.610648,156.144866 C322.253428,156.144866 324.865403,158.571444 324.865403,162.194096 C324.865403,165.781787 322.253428,168.278286 318.610648,168.278286 L318.610648,168.278286 Z M324.968165,156.250277 C323.421957,154.210384 320.947705,153.190702 318.232968,153.190702 C312.974588,153.190702 308.988029,156.812824 308.988029,162.194096 C308.988029,167.574838 312.974588,171.23245 318.232968,171.23245 C320.844413,171.23245 323.215902,170.283219 324.796541,168.348737 L324.796541,169.825554 C324.796541,174.046242 322.837163,176.086136 318.541786,176.086136 C315.861479,176.086136 313.215074,175.136375 311.531142,173.659558 L309.950503,176.261468 C311.943782,178.090539 315.311646,179.0403 318.645078,179.0403 C324.830972,179.0403 328.095543,176.051175 328.095543,169.47436 L328.095543,153.366564 L324.968165,153.366564 L324.968165,156.250277 Z" id="Fill-22" fill="#424243"></path>
            <path d="M350.677179,169.474254 C347.446509,169.474254 345.281606,167.891495 345.281606,165.534838 C345.281606,163.565925 346.346842,162.124069 349.714706,160.189587 L356.553725,167.153087 C355.007517,168.700355 352.979807,169.474254 350.677179,169.474254 M351.50193,149.638395 C353.564071,149.638395 354.697639,150.729058 354.697639,152.346776 C354.697639,153.894044 353.667364,155.019137 350.505555,156.848208 C348.546706,154.808315 348.065205,153.894044 348.065205,152.62805 C348.065205,150.869429 349.336496,149.638395 351.50193,149.638395 M362.430271,161.209268 L359.783866,160.329958 C359.474518,162.053088 358.959115,163.530435 358.306519,164.79643 L352.361111,158.74773 C356.038323,156.602425 357.481768,154.808315 357.481768,152.311286 C357.481768,149.110809 355.14471,147.176857 351.50193,147.176857 C347.549802,147.176857 345.006689,149.392082 345.006689,152.6985 C345.006689,154.527571 345.728147,156.1098 347.89358,158.325555 C343.735397,160.752133 342.050936,162.862477 342.050936,165.887092 C342.050936,169.650116 345.590953,172.288046 350.471124,172.288046 C353.667364,172.288046 356.416532,171.197384 358.512574,169.12253 L361.708283,172.393457 L363.564369,170.142741 L360.333699,166.836323 C361.296173,165.289055 362.017631,163.390063 362.430271,161.209268" id="Fill-23" fill="#424243"></path>
            <path d="M387.864263,150.236273 C390.510668,150.236273 392.778864,151.151073 394.634421,153.155477 L396.868716,150.939721 C394.668851,148.407732 391.438181,147.106247 387.726539,147.106247 C380.407077,147.106247 374.977073,152.417068 374.977073,159.696802 C374.977073,166.977066 380.407077,172.287887 387.692638,172.287887 C391.438181,172.287887 394.668851,170.951442 396.868716,168.418923 L394.634421,166.203697 C392.778864,168.2081 390.510668,169.157861 387.864263,169.157861 C382.434788,169.157861 378.413798,165.147995 378.413798,159.696802 C378.413798,154.246139 382.434788,150.236273 387.864263,150.236273" id="Fill-24" fill="#424243"></path>
            <polygon id="Fill-25" fill="#424243" points="405.22195 160.998446 417.284389 160.998446 417.284389 158.008792 405.22195 158.008792 405.22195 150.447784 418.761736 150.447784 418.761736 147.387679 401.785224 147.387679 401.785224 172.006243 419.243238 172.006243 419.243238 168.946138 405.22195 168.946138"></polygon>
            <polygon id="Fill-26" fill="#424243" points="447.562902 147.387785 437.665367 164.691125 427.630638 147.387785 424.813137 147.387785 424.813137 172.006349 428.112139 172.006349 428.112139 154.175423 436.806715 169.017224 438.387354 169.017224 447.08193 154.070012 447.116361 172.006349 450.415363 172.006349 450.381462 147.387785"></polygon>
            <path d="M476.159708,161.490648 L470.317593,161.490648 L470.317593,150.447361 L476.159708,150.447361 C480.558378,150.447361 482.861005,152.452293 482.861005,155.969004 C482.861005,159.486244 480.558378,161.490648 476.159708,161.490648 M476.263001,147.387785 L466.881398,147.387785 L466.881398,172.006349 L470.317593,172.006349 L470.317593,164.550223 L476.263001,164.550223 C482.517756,164.550223 486.29773,161.314786 486.29773,155.969004 C486.29773,150.623223 482.517756,147.387785 476.263001,147.387785" id="Fill-27" fill="#424243"></path>
            <polygon id="Fill-28" fill="#424243" points="491.214397 172.006296 494.513399 172.006296 494.513399 145.910385 491.214397 145.910385"></polygon>
            <path d="M511.938041,166.308949 C511.113291,168.454254 509.154442,169.614837 506.679661,169.614837 C504.170979,169.614837 502.658671,168.454254 502.658671,166.590222 C502.658671,165.007464 503.586714,163.706509 506.851815,163.706509 L511.938041,163.706509 L511.938041,166.308949 Z M507.43608,153.190278 C504.514757,153.190278 501.80002,154.034628 499.909503,155.582425 L501.284087,158.114415 C502.693632,156.883381 504.892966,156.110012 507.05787,156.110012 C510.322441,156.110012 511.938041,157.762691 511.938041,160.611444 L511.938041,161.279931 L506.714621,161.279931 C501.284087,161.279931 499.3941,163.74147 499.3941,166.731124 C499.3941,169.966561 502.006075,172.217277 506.129827,172.217277 C508.982288,172.217277 511.009998,171.232556 512.109666,169.544387 L512.109666,172.006455 L515.237043,172.006455 L515.237043,160.752345 C515.237043,155.652876 512.419013,153.190278 507.43608,153.190278 L507.43608,153.190278 Z" id="Fill-29" fill="#424243"></path>
            <path d="M527.988946,169.368472 C526.167291,169.368472 525.136486,168.242849 525.136486,166.238445 L525.136486,156.144919 L530.360435,156.144919 L530.360435,153.366617 L525.136486,153.366617 L525.136486,149.28683 L521.837484,149.28683 L521.837484,153.366617 L518.744537,153.366617 L518.744537,156.144919 L521.837484,156.144919 L521.837484,166.379347 C521.837484,170.14237 523.933526,172.217224 527.611267,172.217224 C529.088614,172.217224 530.600921,171.795579 531.597296,170.915739 L530.56649,168.489161 C529.878933,169.052238 528.95142,169.368472 527.988946,169.368472" id="Fill-30" fill="#424243"></path>
            <path d="M542.25178,148.478236 C543.214254,148.478236 544.107866,148.82943 544.794893,149.357546 L545.791797,146.790066 C544.863754,146.051128 543.488641,145.699404 542.080155,145.699404 C538.196889,145.699404 536.065886,148.091021 536.065886,151.713673 L536.065886,153.366882 L532.973469,153.366882 L532.973469,156.144654 L536.065886,156.144654 L536.065886,172.006137 L539.364888,172.006137 L539.364888,156.144654 L544.588838,156.144654 L544.588838,153.366882 L539.296556,153.366882 L539.296556,151.748634 C539.296556,149.603858 540.292931,148.478236 542.25178,148.478236" id="Fill-31" fill="#424243"></path>
            <path d="M555.243321,169.263219 C551.738264,169.263219 549.091859,166.660779 549.091859,162.686403 C549.091859,158.712558 551.738264,156.144548 555.243321,156.144548 C558.748908,156.144548 561.360353,158.712558 561.360353,162.686403 C561.360353,166.660779 558.748908,169.263219 555.243321,169.263219 M555.243321,153.190384 C549.779416,153.190384 545.758426,157.129799 545.758426,162.686403 C545.758426,168.243008 549.779416,172.217383 555.243321,172.217383 C560.707227,172.217383 564.693786,168.243008 564.693786,162.686403 C564.693786,157.129799 560.707227,153.190384 555.243321,153.190384" id="Fill-32" fill="#424243"></path>
            <path d="M572.428484,156.496749 L572.428484,153.366723 L569.266675,153.366723 L569.266675,172.006508 L572.566207,172.006508 L572.566207,162.721311 C572.566207,158.642054 574.765542,156.426298 578.30503,156.426298 C578.546045,156.426298 578.786531,156.426298 579.061448,156.461789 L579.061448,153.190331 C575.865209,153.190331 573.597542,154.315954 572.428484,156.496749" id="Fill-33" fill="#424243"></path>
            <path d="M605.902865,153.19049 C602.809919,153.19049 600.266805,154.527465 598.892221,156.63728 C597.689791,154.316113 595.352733,153.19049 592.569134,153.19049 C589.819436,153.19049 587.585671,154.246192 586.279948,156.144654 L586.279948,153.366882 L583.11867,153.366882 L583.11867,172.006137 L586.417672,172.006137 L586.417672,162.405236 C586.417672,158.36041 588.582575,156.215105 591.881577,156.215105 C594.871232,156.215105 596.589594,158.009215 596.589594,161.666298 L596.589594,172.006137 L599.889126,172.006137 L599.889126,162.405236 C599.889126,158.36041 602.05403,156.215105 605.353032,156.215105 C608.342686,156.215105 610.061049,158.009215 610.061049,161.666298 L610.061049,172.006137 L613.36058,172.006137 L613.36058,161.279613 C613.36058,155.79346 610.335965,153.19049 605.902865,153.19049" id="Fill-34" fill="#424243"></path>
            <path d="M97.6608928,0 L38.2862736,0 C35.22352,0 32.394896,1.63890688 30.8714648,4.29590651 L1.13224416,56.1704344 C-0.377414722,58.8030676 -0.377414722,62.0390346 1.13224416,64.6721976 L30.8714648,116.546196 C32.394896,119.203195 35.22352,120.842102 38.2862736,120.842102 L97.6608928,120.842102 C100.723646,120.842102 103.5528,119.203195 105.076231,116.546196 L134.815452,64.6721976 C136.324581,62.0390346 136.324581,58.8030676 134.815452,56.1704344 L105.076231,4.29590651 C103.5528,1.63890688 100.723646,0 97.6608928,0" id="Fill-35" fill="#009CDB"></path>
            <path d="M10.9105961,80.2753962 L48.2161212,117.844185 C50.4000943,120.044049 53.5963335,120.90376 56.5891661,120.09596 L107.490626,106.360713 C110.467567,105.55715 112.789794,103.226449 113.582762,100.246859 L127.252855,48.8676052 C128.041586,45.9033767 127.197766,42.7436871 125.03657,40.5671298 L87.7315749,2.99781175 C85.547072,0.79794742 82.3513625,-0.0612338832 79.35853,0.746566047 L28.45707,14.4818134 C25.4795989,15.2853757 23.1573728,17.6155474 22.3644046,20.595667 L8.69431092,71.9749208 C7.90558037,74.9386196 8.74940023,78.0988389 10.9105961,80.2753962" id="Fill-36" fill="#58C8F2"></path>
            <path d="M116.952956,83.736064 L116.952956,37.1061441 C116.952956,33.9099049 115.252603,30.9541517 112.489133,29.3475569 L72.4847618,6.08768622 C69.6958656,4.4662596 66.2511948,4.4662596 63.4628284,6.08768622 L23.4579273,29.3475569 C20.694457,30.9541517 18.9941043,33.9099049 18.9941043,37.1061441 L18.9941043,83.736064 C18.9941043,86.9328329 20.694457,89.8880564 23.4579273,91.4946513 L63.4628284,114.754522 C66.2511948,116.375949 69.6958656,116.375949 72.4847618,114.754522 L112.489133,91.4946513 C115.252603,89.8880564 116.952956,86.9328329 116.952956,83.736064" id="Fill-37" fill="#FFFFFF"></path>
            <path d="M85.2726849,74.3497996 C85.2726849,75.422452 84.7037819,75.7731166 83.7815657,76.3081186 L69.4652321,84.3977714 C68.5424862,84.9327733 67.4046802,84.9327733 66.482464,84.3977714 L52.4855424,76.3081186 C51.5627965,75.7731166 50.9938935,75.422452 50.9938935,74.3497996 L50.9938935,74.2894133 C50.9938935,65.2007371 58.9490013,58.1546029 67.9735832,58.1546029 C76.9981651,58.1546029 85.2726849,65.2007371 85.2726849,74.2894133 L85.2726849,74.3497996 Z M67.9735832,35.399541 C72.7552291,35.399541 76.6316093,39.3034659 76.6316093,44.1184832 C76.6316093,48.9340302 72.7552291,52.8374254 67.9735832,52.8374254 C63.1919373,52.8374254 59.3160868,48.9340302 59.3160868,44.1184832 C59.3160868,39.3034659 63.1919373,35.399541 67.9735832,35.399541 L67.9735832,35.399541 Z M77.0675564,54.7507194 C80.0317849,52.1763537 81.9111778,48.3698945 81.9111778,44.1184832 C81.9111778,36.3667821 75.6712544,30.0828932 67.9735832,30.0828932 C60.2764417,30.0828932 54.0365183,36.3667821 54.0365183,44.1184832 C54.0365183,48.3698945 55.9153815,52.1763537 58.8801396,54.7507194 C50.8662346,58.2822618 45.2646056,66.3343055 45.2646056,75.7069035 L45.2646056,75.7911266 C45.2646056,77.2817161 46.055455,78.6626567 47.3373408,79.4063624 L65.900848,90.2017477 C67.1832635,90.9454533 68.7639029,90.9454533 70.0463184,90.2017477 L88.6103553,79.4063624 C89.8922411,78.6626567 90.6825608,77.2817161 90.6825608,75.7911266 L90.6825608,75.7069035 C90.6825608,66.3343055 85.0809317,58.2822618 77.0675564,54.7507194 L77.0675564,54.7507194 Z" id="Fill-38" fill="#009CDB"></path>
            <polygon id="Fill-39" fill="#009CDB" points="240.624424 102.555843 240.503651 41.1593399 210.04668 92.3235335 204.509146 92.3235335 174.051645 41.5205986 174.051645 102.555843 162.494544 102.555843 162.494544 18.2866835 172.366124 18.2866835 207.518399 77.5161635 242.189172 18.2866835 252.061282 18.2866835 252.181525 102.555843"></polygon>
            <path d="M356.181025,60.4215279 C356.181025,41.7610846 342.216415,28.0374908 323.557032,28.0374908 C304.656102,28.0374908 290.691493,41.7610846 290.691493,60.4215279 C290.691493,79.0809117 304.656102,92.8045055 323.557032,92.8045055 C342.216415,92.8045055 356.181025,79.0809117 356.181025,60.4215279 M278.65289,60.4215279 C278.65289,35.7420481 297.674062,17.3231503 323.557032,17.3231503 C349.198985,17.3231503 368.219628,35.6223348 368.219628,60.4215279 C368.219628,85.2207209 349.198985,103.518846 323.557032,103.518846 C297.674062,103.518846 278.65289,85.0999481 278.65289,60.4215279" id="Fill-40" fill="#009CDB"></path>
            <path d="M455.00605,78.839896 C455.00605,69.088559 447.783524,64.7550434 434.420659,64.7550434 L406.731397,64.7550434 L406.731397,92.8045055 L434.420659,92.8045055 C447.783524,92.8045055 455.00605,88.591233 455.00605,78.839896 L455.00605,78.839896 Z M406.731397,28.0369611 L406.731397,55.0037064 L431.410876,55.0037064 C443.689965,55.0037064 450.672535,50.4291751 450.672535,41.5205986 C450.672535,32.6120221 443.689965,28.0369611 431.410876,28.0369611 L406.731397,28.0369611 Z M467.164896,79.8028994 C467.164896,94.2490107 456.210069,102.555843 434.901631,102.555843 L394.693324,102.555843 L394.693324,18.2866835 L432.494123,18.2866835 C451.876554,18.2866835 462.710608,26.4722129 462.710608,40.0760934 C462.710608,49.225156 458.015833,55.6054512 451.394522,58.8557202 C460.905373,61.5047743 467.164896,68.6070572 467.164896,79.8028994 L467.164896,79.8028994 Z" id="Fill-41" fill="#009CDB"></path>
            <polygon id="Fill-42" fill="#009CDB" points="493.878283 102.555631 505.916886 102.555631 505.916886 18.2864716 493.878283 18.2864716"></polygon>
            <path d="M609.920518,60.4215279 C609.920518,41.7610846 595.955908,28.0374908 577.296524,28.0374908 C558.395595,28.0374908 544.431515,41.7610846 544.431515,60.4215279 C544.431515,79.0809117 558.395595,92.8045055 577.296524,92.8045055 C595.955908,92.8045055 609.920518,79.0809117 609.920518,60.4215279 M532.392913,60.4215279 C532.392913,35.7420481 551.413555,17.3231503 577.296524,17.3231503 C602.938478,17.3231503 621.95912,35.6223348 621.95912,60.4215279 C621.95912,85.2207209 602.938478,103.518846 577.296524,103.518846 C551.413555,103.518846 532.392913,85.0999481 532.392913,60.4215279" id="Fill-43" fill="#009CDB"></path>
        </g>
    </g>
</svg>