<?xml version="1.0" encoding="UTF-8"?>
<svg width="44px" height="44px" viewBox="0 0 44 44" version="1.1" xmlns="http://www.w3.org/2000/svg" xmlns:xlink="http://www.w3.org/1999/xlink">
    <title>newest_message</title>
    <g id="newest_message" stroke="none" stroke-width="1" fill="none" fill-rule="evenodd">
        <g id="Group">
            <rect id="Mask" fill="#FFFFFF" x="0" y="0" width="44" height="44" rx="22"></rect>
            <path d="M22.2902439,28.7423459 L22.1555286,28.8847039 C22.1841814,28.8543625 22.2462534,28.826975 22.2902456,28.826975 C22.3342378,28.826975 22.3963098,28.8543625 22.4242666,28.8839677 L22.2902439,28.7423459 Z M13.1452633,16.8153397 L22.2909787,26.521618 L31.6099046,16.65349 C31.9296866,16.314862 32.3411085,16.1333333 32.7926817,16.1333333 C33.2442549,16.1333333 33.6556768,16.314862 33.9754588,16.65349 C34.1400521,16.8277834 34.2666151,17.0332836 34.3499844,17.2628183 C34.4274761,17.4761707 34.4666667,17.7002721 34.4666667,17.9290944 C34.4666667,18.147599 34.4259823,18.3630095 34.3499844,18.5722491 C34.2666151,18.8017838 34.1400521,19.007284 33.9754588,19.1815774 L23.4723369,30.2805688 C23.1532407,30.6184714 22.7418188,30.8 22.2902456,30.8 C21.8386724,30.8 21.4272505,30.6184714 21.1074685,30.2798433 L10.7585705,19.3441633 C10.4363577,19.002962 10.2666667,18.5627175 10.2666667,18.0793834 C10.2666667,17.5960493 10.4363577,17.1558048 10.7578745,16.8153397 C11.0793913,16.4748747 11.4951343,16.295183 11.9515689,16.295183 C12.4080035,16.295183 12.8237466,16.4748747 13.1452633,16.8153397 Z" id="Shape" fill="#4E4E4E" fill-rule="nonzero"></path>
        </g>
    </g>
</svg>