<?xml version="1.0" encoding="UTF-8"?>
<svg width="43px" height="43px" viewBox="0 0 43 43" version="1.1" xmlns="http://www.w3.org/2000/svg" xmlns:xlink="http://www.w3.org/1999/xlink">
    <title>web live chat</title>
    <g id="Design-System" stroke="none" stroke-width="1" fill="none" fill-rule="evenodd">
        <g id="web-live-chat">
            <rect id="Rectangle" fill="#268DFC" x="0" y="0" width="43" height="43" rx="21.5"></rect>
            <path d="M31.552,18.3742857 L31.4635412,18.2992971 C32.186841,18.8797126 32.7546948,19.5637738 33.1671026,20.3514807 C33.5795104,21.1391875 33.7857143,21.9821721 33.7857143,22.8804343 C33.7857143,23.433211 33.7222669,23.9928975 33.5953722,24.5594936 C33.4684775,25.1260898 33.2781355,25.6650471 33.0243461,26.1763656 C32.7705567,26.6876841 32.4469752,27.1575443 32.0536016,27.5859463 C31.660228,28.0143482 31.2034071,28.3736531 30.6831388,28.6638609 L30.6831388,28.7053192 C30.6831388,29.1889988 30.8195506,29.7175916 31.0923742,30.2910974 C31.3651979,30.8646033 31.5272505,31.211644 31.6795241,31.4880324 L31.7109859,31.5659388 C31.7236754,31.5935776 31.7331925,31.6212165 31.7395372,31.6488553 C31.745882,31.6764941 31.7490543,31.7110427 31.7490543,31.7525009 C31.7490543,31.8906951 31.7078135,32.0081602 31.625332,32.1048961 C31.5428504,32.201632 31.4381623,32.25 31.3112676,32.25 C31.2858887,32.25 31.2605097,32.2465451 31.2351308,32.2396354 C31.2097518,32.2327257 31.1970624,32.2292709 31.1970624,32.2292709 L31.1780282,32.2292709 C30.7846546,32.1601738 30.3627297,32.0081602 29.9122535,31.7732301 C29.4617773,31.5382999 29.0335077,31.275731 28.6274447,30.9855232 C28.2213816,30.6953154 27.8692488,30.4189271 27.5710463,30.1563581 C27.2728437,29.8937892 27.0793293,29.707227 26.990503,29.5966717 C26.8128504,29.6243105 26.6574044,29.6415848 26.524165,29.6484945 C26.3909256,29.6554042 26.2545137,29.658859 26.1149296,29.658859 L25.6961771,29.658859 C24.6048826,29.658859 23.5833803,29.4964809 22.63167,29.1717245 C21.6799598,28.8469682 20.8551442,28.3874725 20.1572233,27.7932375 C19.7938827,27.4838762 19.4718126,27.141742 19.191013,26.7668351 C19.2278884,26.7307566 19.2627428,26.6968434 19.2962618,26.6633871 L19.4634267,26.6798475 L19.8527442,26.6973433 L20.6919499,26.7009959 C22.2053329,26.7009959 23.6285053,26.4748323 24.9581585,26.0212372 C26.2960348,25.564837 27.4633775,24.9147073 28.4548411,24.0707784 C29.4548401,23.2195842 30.23867,22.192545 30.8018312,20.995943 C31.1323884,20.2935768 31.3633302,19.5502449 31.4950076,18.7677719 L31.552,18.3742857 Z M20.1532506,9.21428571 C21.4430106,9.21428571 22.6540353,9.41357067 23.7863246,9.81214059 C24.918614,10.2107105 25.9046805,10.7516268 26.7445243,11.4348895 C27.584368,12.1181522 28.2479946,12.9234262 28.7354039,13.8507113 C29.2228132,14.7779964 29.4665179,15.7703541 29.4665179,16.8277845 C29.4815151,18.0153602 29.2565569,19.1012598 28.7916434,20.0854835 C28.3267299,21.0697072 27.6818499,21.9115844 26.8570033,22.6111153 C26.0321568,23.3106462 25.0573382,23.8515625 23.9325474,24.2338643 C22.8077567,24.616166 21.6004813,24.8073169 20.3107213,24.8073169 L20.3107213,24.8073169 L19.8158133,24.8073169 C19.650844,24.8073169 19.489624,24.8032498 19.3321533,24.7951158 C19.1746826,24.7869817 18.9909668,24.7666465 18.7810059,24.7341102 C18.6760254,24.8642554 18.4473179,25.0838756 18.0948835,25.3929706 C17.7424491,25.7020657 17.3262765,26.0274289 16.8463658,26.3690602 C16.3664551,26.7106916 15.8602992,27.0197866 15.3278983,27.2963453 C14.7954973,27.5729041 14.2968401,27.7518538 13.8319266,27.8331946 L13.8319266,27.8331946 L13.8094308,27.8331946 C13.8094308,27.8331946 13.7944336,27.8372617 13.7644392,27.8453957 C13.7344448,27.8535298 13.7044503,27.8575969 13.6744559,27.8575969 C13.5244838,27.8575969 13.4007568,27.8006583 13.303275,27.6867812 C13.2057931,27.5729041 13.1570522,27.4346247 13.1570522,27.2719431 C13.1570522,27.2231386 13.1608015,27.1824682 13.1683001,27.1499319 C13.1757987,27.1173956 13.1870466,27.0848593 13.2020438,27.0523229 L13.2020438,27.0523229 L13.179548,27.0523229 C13.3595145,26.7269597 13.6107178,26.2267138 13.9331578,25.5515852 C14.2555978,24.8764566 14.4168178,24.2541995 14.4168178,23.6848139 L14.4168178,23.6848139 L14.4168178,23.6360094 C13.8019322,23.294378 13.2620326,22.8714059 12.7971191,22.3670929 C12.3322056,21.86278 11.9497768,21.3096625 11.6498326,20.7077406 C11.3498884,20.1058187 11.1249302,19.4713605 10.9749581,18.8043659 C10.824986,18.1373714 10.75,17.4785109 10.75,16.8277845 C10.75,15.7703541 10.9937047,14.7779964 11.481114,13.8507113 C11.9685233,12.9234262 12.6396484,12.1181522 13.4944894,11.4348895 C14.3493304,10.7516268 15.3466448,10.2107105 16.4864328,9.81214059 C17.6262207,9.41357067 18.8484933,9.21428571 20.1532506,9.21428571 Z" id="Combined-Shape" fill="#FFFFFF" fill-rule="nonzero"></path>
        </g>
    </g>
</svg>