<?xml version="1.0" encoding="UTF-8"?>
<svg width="43px" height="31px" viewBox="0 0 43 31" version="1.1" xmlns="http://www.w3.org/2000/svg" xmlns:xlink="http://www.w3.org/1999/xlink">
    <title>youtube</title>
    <defs>
        <polygon id="path-1" points="0.0212180328 0.339842158 42.9612119 0.339842158 42.9612119 30.4125137 0.0212180328 30.4125137"></polygon>
    </defs>
    <g id="Design-System" stroke="none" stroke-width="1" fill="none" fill-rule="evenodd">
        <g id="youtube">
            <g id="Group-3">
                <mask id="mask-2" fill="white">
                    <use xlink:href="#path-1"></use>
                </mask>
                <g id="Clip-2"></g>
                <path d="M42.0633355,5.03539281 C41.5693089,3.18730216 40.1137519,1.73139148 38.2653076,1.23736495 C34.9149802,0.339842158 21.4804291,0.339842158 21.4804291,0.339842158 C21.4804291,0.339842158 8.04623167,0.339842158 4.69590429,1.23736495 C2.84746,1.73139148 1.39190295,3.18730216 0.897876421,5.03539281 C0,8.38607383 0,15.3760011 0,15.3760011 C0,15.3760011 0,22.366282 0.897876421,25.7166094 C1.39190295,27.5647 2.84746,29.0209643 4.69590429,29.5146372 C8.04623167,30.4125137 21.4804291,30.4125137 21.4804291,30.4125137 C21.4804291,30.4125137 34.9149802,30.4125137 38.2653076,29.5146372 C40.1137519,29.0209643 41.5693089,27.5647 42.0633355,25.7166094 C42.9612119,22.366282 42.9612119,15.3760011 42.9612119,15.3760011 C42.9612119,15.3760011 42.9612119,8.38607383 42.0633355,5.03539281" id="Fill-1" fill="#FF0000" mask="url(#mask-2)"></path>
            </g>
            <polyline id="Fill-4" fill="#FFFFFF" points="17.1844848 21.8202713 28.3455236 15.3763547 17.1844848 8.9317309 17.1844848 21.8202713"></polyline>
        </g>
    </g>
</svg>